<svg xmlns="http://www.w3.org/2000/svg" style="display: none;"><symbol id="cow" viewBox="0 0 497 497"><title>cow</title><path d="m360.735 405.48v47.319h72.07c14.552 0 26.349-11.797 26.349-26.349v-62.757z" fill="#f9d888"/><path d="m360.735 452.8h36.123c4.14-6.574 6.547-14.344 6.547-22.67 0-1.16.941-2.101 2.101-2.101h19.139c12.703 0 24.535-3.697 34.51-10.051v-54.284l-98.419 41.787v47.319z" fill="#f5c956"/><path d="m428.099 336.521-52.491 27.172c-20.735 0-37.544 16.809-37.544 37.544v28.893c0 12.52 10.149 22.669 22.669 22.669 12.52 0 22.669-10.149 22.669-22.669v-22.101h41.24c24.486 0 44.335-19.85 44.335-44.335z" fill="#fc5c70"/><path d="m375.609 294.814v68.879h93.371s5.253-53.871-20.426-83.838z" fill="#64d1e1"/><path d="m497 223.9v-57.146c0-32.708-26.515-59.223-59.223-59.223h-68.452c-11.658 0-21.108 9.451-21.108 21.108 0 21.05 17.064 38.114 38.114 38.114z" fill="#4f4c5f"/><path d="m487.862 186.407c-6.343-12.192-19.142-19.654-32.886-19.654h-68.645c-7.924 0-15.283-2.42-21.38-6.559-18.621 14.823-30.611 37.62-30.756 63.236-.249 44.128 35.327 80.813 79.443 81.849 45.854 1.077 83.362-35.771 83.362-81.379 0-13.523-3.301-26.273-9.138-37.493z" fill="#ffd3bc"/><path d="m305.943 274.268c0-74.969-65.827-135.743-147.029-135.743s-147.028 60.774-147.028 135.743c0 26.985 8.534 52.127 23.241 73.26 6.159 8.85 9.394 19.406 9.394 30.189v58.936c0 8.918 7.229 16.147 16.147 16.147h35.731c8.917 0 16.147-7.229 16.147-16.147v-33.539c14.578 4.47 30.166 6.896 46.369 6.896s31.791-2.427 46.369-6.896v33.539c0 8.918 7.229 16.147 16.147 16.147h35.731c8.917 0 16.147-7.229 16.147-16.147v-58.936c0-10.783 3.235-21.339 9.394-30.189 14.706-21.133 23.24-46.275 23.24-73.26z" fill="#e27858"/><path d="m31.745 87.001c-16.101-5.055-32.295 7.346-31.731 24.213.682 20.408 10.69 46.523 49.861 65.925l32.938-74.104z" fill="#e27858"/><path d="m286.083 87.001c16.101-5.055 32.295 7.346 31.731 24.213-.682 20.408-10.69 46.523-49.861 65.925l-32.938-74.104z" fill="#e7886e"/><path d="m42.535 275.604c-5.177-15.109-7.47-31.51-6.248-48.522l3.575-49.944c2.233-31.23 16.351-58.935 37.728-78.831 21.377-19.905 50.014-32.001 81.324-32.001 62.61 0 114.587 48.382 119.052 110.832l3.575 49.944c1.222 17.002-1.071 33.403-6.248 48.512z" fill="#ed9b83"/><path d="m57.817 213.862c0-56.138 26.588-109.507 67.366-142.713-17.961 5.287-34.201 14.69-47.593 27.159-21.377 19.896-35.495 47.601-37.728 78.831l-3.574 49.944c-1.222 17.012 1.071 33.413 6.248 48.522l26.597-.001c-7.299-19.102-11.316-39.933-11.316-61.742z" fill="#e7886e"/><path d="m275.293 275.595c-6.088 17.843-16.201 33.893-29.267 47.03-22.198 22.289-52.938 36.176-87.111 36.176-54.299 0-99.928-35.065-116.379-83.196 27.315-30.439 69.299-49.924 116.379-49.924s89.053 19.485 116.378 49.914z" fill="#ffc8e5"/><ellipse cx="112.545" cy="290.882" fill="#4f4c5f" rx="19.708" ry="24.256"/><ellipse cx="205.284" cy="290.882" fill="#4f4c5f" rx="19.708" ry="24.256"/><g><g><path d="m82.466 222.483c-4.143 0-7.5-3.358-7.5-7.5v-14.69c0-4.142 3.357-7.5 7.5-7.5s7.5 3.358 7.5 7.5v14.69c0 4.142-3.357 7.5-7.5 7.5z" fill="#423e4f"/></g><g><path d="m235.362 222.483c-4.143 0-7.5-3.358-7.5-7.5v-14.69c0-4.142 3.357-7.5 7.5-7.5s7.5 3.358 7.5 7.5v14.69c0 4.142-3.357 7.5-7.5 7.5z" fill="#423e4f"/></g></g><path d="m140.982 86.232c-2.808-13.817-7.295-25.712-11.546-34.851-4.454-9.575-17.985-9.575-22.439 0-4.251 9.138-8.738 21.033-11.546 34.851-2.906 14.3 8.173 27.639 22.765 27.639 14.593 0 25.672-13.339 22.766-27.639z" fill="#f7cec4"/><path d="m176.847 86.232c2.808-13.817 7.295-25.712 11.546-34.851 4.454-9.575 17.985-9.575 22.439 0 4.251 9.138 8.738 21.033 11.546 34.851 2.906 14.3-8.173 27.639-22.765 27.639-14.593 0-25.672-13.339-22.766-27.639z" fill="#f7cec4"/><path d="m428.099 336.521c-5.684-9.237-17.78-12.117-27.016-6.433-20.47 12.597-39.557 5.307-41.1 5.215-10.551-2.513-21.14 4.003-23.653 14.553-2.513 10.551 4.003 21.14 14.554 23.653l3.442.819c23.154 5.515 47.069 1.682 67.34-10.792 9.238-5.683 12.117-17.778 6.433-27.015z" fill="#ffd3bc"/><g><g><path d="m372.31 233.083c-4.143 0-7.5-3.358-7.5-7.5v-8.318c0-4.142 3.357-7.5 7.5-7.5s7.5 3.358 7.5 7.5v8.318c0 4.142-3.358 7.5-7.5 7.5z" fill="#423e4f"/></g><g><path d="m458.885 233.083c-4.143 0-7.5-3.358-7.5-7.5v-8.318c0-4.142 3.357-7.5 7.5-7.5s7.5 3.358 7.5 7.5v8.318c0 4.142-3.357 7.5-7.5 7.5z" fill="#423e4f"/></g><g><path d="m415.597 238.035c-6.541 0-12.762-2.833-17.066-7.771-2.721-3.123-2.396-7.86.727-10.582 3.122-2.721 7.859-2.397 10.582.726 1.455 1.669 3.554 2.627 5.758 2.627 2.205 0 4.304-.958 5.759-2.627 2.722-3.123 7.459-3.448 10.582-.726 3.123 2.721 3.447 7.459.727 10.582-4.306 4.938-10.527 7.771-17.069 7.771z" fill="#423e4f"/></g></g><path d="m63.168 256.773c-7.549 5.656-14.468 11.961-20.632 18.831 13.909 40.695 48.679 72.045 91.91 80.762-34.656-22.163-60.603-57.641-71.278-99.593z" fill="#ffb3dd"/><path d="m356.217 231.516c0-24.37 7.536-47.047 20.482-66.017-4.246-1.107-8.214-2.906-11.748-5.305-18.621 14.823-30.611 37.62-30.756 63.236-.173 30.714 17.018 57.807 42.356 71.798-13.073-16.068-20.334-37.331-20.334-63.712z" fill="#ffbe9c"/><path d="m376.686 165.519c18.895-27.697 49.335-47.479 84.763-53.055-7.251-3.166-15.253-4.934-23.671-4.934h-68.452c-11.658 0-21.109 9.45-21.109 21.108 0 17.718 12.09 32.609 28.469 36.881z" fill="#423e4f"/></symbol><symbol id="sacred-cow" viewBox="0 0 511.998 511.998"><title>sacred-cow</title><ellipse cx="157.646" cy="188.706" rx="19.039" ry="28.433"/><ellipse cx="354.347" cy="188.706" rx="19.039" ry="28.433"/><path d="m175.338 366.923c0 25.09 12.643 44.745 28.782 44.745s28.783-19.654 28.783-44.745-12.643-44.744-28.783-44.744-28.782 19.654-28.782 44.744zm37.319-22.614c3.333 5.833 5.246 14.076 5.246 22.614 0 8.539-1.912 16.781-5.246 22.615-2.551 4.464-5.743 7.13-8.537 7.13s-5.986-2.665-8.537-7.129c-3.333-5.834-5.245-14.077-5.245-22.615s1.912-16.781 5.245-22.615c2.551-4.464 5.743-7.129 8.537-7.129s5.987 2.665 8.537 7.129z"/><path d="m279.09 366.923c0 25.09 12.643 44.745 28.783 44.745s28.783-19.654 28.783-44.745-12.643-44.744-28.783-44.744-28.783 19.654-28.783 44.744zm37.32-22.614c3.333 5.833 5.246 14.076 5.246 22.614 0 8.539-1.912 16.781-5.246 22.615-2.551 4.464-5.743 7.13-8.537 7.13s-5.986-2.666-8.537-7.13c-3.333-5.833-5.246-14.076-5.246-22.615 0-8.538 1.912-16.781 5.246-22.614 2.551-4.464 5.743-7.13 8.537-7.13s5.986 2.666 8.537 7.13z"/><path d="m509.801 128.509c-40.955-40.965-94.312-46.965-134.705-43.826l2.9-59.517c.526-10.941-6.779-20.921-17.369-23.729-10.599-2.811-21.885 2.25-26.833 12.031l-26.086 51.517c-16.359-5.438-33.723-8.373-51.71-8.373-17.992 0-35.36 2.936-51.722 8.376l-26.075-51.504c-4.941-9.78-16.224-14.846-26.837-12.048-10.6 2.811-17.899 12.795-17.358 23.735l2.902 59.541c-15.378-1.186-30.302-.868-44.463.99-4.107.539-6.999 4.305-6.46 8.412.495 3.776 3.719 6.525 7.427 6.525.325 0 .654-.021.985-.065 13.71-1.799 28.231-2.055 43.246-.771l.293 6.004c-6.879 6.725-13.259 14.031-19.088 21.839-27.238-12.498-56.97-12.234-79.246-9.091 8.687-5.019 18.037-9.097 28.006-12.19 3.956-1.228 6.168-5.43 4.94-9.386s-5.426-6.167-9.386-4.94c-23.574 7.314-44.086 19.587-60.968 36.479-2.153 2.154-2.79 5.397-1.61 8.206.309.736 7.744 18.242 22.494 35.903 17.632 21.112 38.332 33.466 60.334 36.137-2.329 12.322-3.554 25.073-3.554 38.127 0 14.857 1.606 29.61 4.737 43.919-15.443 21.625-23.649 46.009-23.649 71.411 0 40.235 20.567 77.923 57.912 106.121 36.717 27.724 85.42 42.992 137.139 42.992 55.335 0 108.247-18.021 145.167-49.441 3.154-2.684 3.535-7.418.851-10.572-2.685-3.155-7.418-3.535-10.572-.851-34.25 29.147-83.617 45.864-135.445 45.864-99.28 0-180.05-60.163-180.05-134.112 0-73.95 80.77-134.113 180.05-134.113s180.05 60.163 180.05 134.113c0 23.91-8.592 47.392-24.848 67.909-2.572 3.247-2.026 7.964 1.221 10.536 3.247 2.573 7.964 2.025 10.536-1.221 18.377-23.195 28.091-49.898 28.091-77.224 0-25.402-8.206-49.785-23.648-71.409 3.131-14.309 4.737-29.062 4.737-43.922 0-13.057-1.226-25.811-3.556-38.135 22.001-2.673 42.701-15.026 60.333-36.137 14.751-17.662 22.188-35.167 22.498-35.903 1.18-2.809.544-6.053-1.611-8.207zm-37.323-9.947c-22.286-3.154-52.058-3.435-79.331 9.08-5.826-7.804-12.203-15.108-19.079-21.83l.293-6.017c29.019-2.496 65.603-.075 98.117 18.767zm-125.3-98.32c1.772-3.502 5.813-5.313 9.606-4.307 3.799 1.007 6.419 4.587 6.231 8.505l-3.349 68.719c-11.633-9.18-24.341-16.858-37.881-22.769zm-191.978-4.304c3.803-1.003 7.845.81 9.616 4.316l25.386 50.142c-13.534 5.909-26.235 13.584-37.864 22.76l-3.349-68.72c-.195-3.919 2.422-7.493 6.211-8.498zm-120.362 147.366c-7.792-9.274-13.398-18.65-16.744-24.914 16.833-4.637 57.222-12.931 92.112 1.841-10.261 16.316-18.235 34.437-23.43 53.821-18.79-1.74-36.237-12.06-51.938-30.748zm84.021 92.796c-8.074 6.097-15.36 12.638-21.828 19.552-1.435-9.465-2.172-19.087-2.172-28.762 0-96.649 72.287-175.279 161.139-175.279 8.468 0 16.785.719 24.904 2.095-10.462 17.018-14.765 42.117-11.892 71.166 2.75 27.803 11.535 53.211 23.839 70.881-12.024-1.745-24.348-2.646-36.852-2.646-51.718.001-100.421 15.269-137.138 42.993zm274.277 0c-21.545-16.268-47.22-28.24-75.206-35.362-17.004-12.205-30.596-43.012-33.992-77.342-2.798-28.286 1.948-52.531 12.74-66.122 69.222 19.657 120.459 88.248 120.459 169.616 0 9.676-.737 19.299-2.172 28.764-6.467-6.914-13.754-13.457-21.829-19.554zm32.082-62.061c-5.195-19.381-13.169-37.499-23.428-53.812 34.888-14.771 75.278-6.478 92.112-1.841-8.541 15.958-31.822 52.172-68.684 55.653z"/></symbol><symbol id="sacred-cow-1" viewBox="0 0 512 512"><title>sacred-cow-1</title><path d="m330.252 96.212s110.754-37.078 181.748 33.915c0 0-29.418 70.056-87.598 70.056" fill="#934d36"/><path d="m365.682 135.355 58.72 64.829c58.174 0 87.596-70.052 87.596-70.052s-.01 0-.021-.01c-1.277-.464-66.024-23.921-117.049 3.441z" fill="#f1d0a5"/><path d="m373.964 17.834-5.068 103.924-72.864-19.285 11.888-23.478 35.119-69.351c3.482-6.882 11.311-10.395 18.77-8.416 7.458 1.978 12.526 8.89 12.155 16.606z" fill="#f6f1f1"/><path d="m361.808 1.228c-9.797-1.906-24.415 85.855-24.415 85.855l-29.473-8.087 35.119-69.351c3.481-6.882 11.311-10.395 18.769-8.417z" fill="#dfdfdf"/><path d="m181.748 96.217s-110.754-37.078-181.748 33.915c0 0 29.418 70.056 87.598 70.056" fill="#934d36"/><path d="m146.318 135.359-58.72 64.829c-58.174 0-87.596-70.052-87.596-70.052s.01 0 .021-.01c1.277-.464 66.024-23.921 117.049 3.441z" fill="#f1d0a5"/><path d="m215.966 102.484-72.854 19.275-.628-12.949-4.44-90.975c-.381-7.706 4.687-14.628 12.146-16.606 3.235-.855 6.552-.68 9.539.36 3.904 1.35 7.263 4.172 9.23 8.066z" fill="#f6f1f1"/><path d="m177.52 112.199-35.036-3.389-4.44-90.975c-.381-7.706 4.687-14.628 12.146-16.606 3.235-.855 6.552-.68 9.539.36-16.926-2.267 17.791 110.61 17.791 110.61z" fill="#dfdfdf"/><path d="m429.728 246.626c0 27.773-5.553 54.136-15.514 77.871-27.32 65.138-87.884 110.425-158.214 110.425-95.951 0-173.729-84.309-173.729-188.295 0-103.996 77.778-188.296 173.729-188.296 13.526 0 26.682 1.679 39.322 4.842 77.004 19.305 134.406 94.116 134.406 183.453z" fill="#aa593d"/><path d="m429.728 246.626c0 27.773-5.553 54.136-15.514 77.871l-97.62-97.619c-39.858-26.589-56.042-128.937-21.273-163.705 77.005 19.305 134.407 94.116 134.407 183.453z" fill="#f6f1f1"/><path d="m255.991 434.917c-95.94 0-173.719-84.309-173.719-188.295 0-103.996 77.778-188.296 173.719-188.296-41.248 0-74.688 84.299-74.688 188.296 0 103.986 33.44 188.295 74.688 188.295z" fill="#934d36"/><ellipse cx="255.999" cy="365.432" fill="#f1d0a5" rx="193.213" ry="145.888"/><path d="m254.718 511.305c-106.118-.516-191.932-65.623-191.932-145.873 0-80.261 85.814-145.368 191.932-145.883-53.847 1.01-97.28 65.931-97.28 145.883.001 79.941 43.433 144.863 97.28 145.873z" fill="#f1b986"/><g fill="#454045"><g><ellipse cx="154.68" cy="186.681" rx="19.613" ry="29.291"/><ellipse cx="357.317" cy="186.681" rx="19.613" ry="29.291"/></g><g><ellipse cx="202.557" cy="370.277" rx="21.925" ry="38.368"/><ellipse cx="309.441" cy="370.277" rx="21.925" ry="38.368"/></g></g></symbol></svg>