<svg xmlns="http://www.w3.org/2000/svg" style="display: none;"><symbol id="meat" viewBox="0 0 512 512"><title>meat</title><path d="m206.575 441.41c63.932-27.862 12.085-101.1 103.099-144.261 80.622-38.233 164.908-49.856 150.057-165.871-14.758-115.29-221.487-177.999-343.398-62.267-127.003 120.568-55.483 435.908 90.242 372.399z" fill="#ff7b8b"/><path d="m198.61 411.772c32.378-14.038 18.156-115.966 102.043-145.395 77.433-27.165 139.102-60.724 135.152-123.668-5.368-85.555-192.496-151.66-298.418-47.786-103.324 101.327-53.545 366.609 61.223 316.849z" fill="#ff4755"/><path d="m309.673 297.149c-91.013 43.161-39.167 116.399-103.098 144.261-92.872 40.475-155.598-72.927-156.01-191.719l-.009-.003.165 49.378.036-.008c1.463 107.847 57.623 215.901 154.573 204.683 68.459-7.922 64.801-125.966 104.344-150.029 70.786-43.076 152.3-49.16 151.68-142.72l.017-.002.003-49.616c-2.631 88.342-78.668 101.141-151.701 135.775z" fill="#994e37"/><path d="m300.673 335.712c-51.784 35.505-35.885 142.107-104.344 150.029-53.95 6.243-95.26-24.457-121.552-71.494 25.337 56.96 69.984 96.503 130.552 89.494 68.459-7.922 64.801-125.966 104.344-150.029 70.786-43.075 152.3-49.16 151.68-142.72l.017-.002.003-49.616c.072 124.709-92.358 127.481-160.7 174.338z" fill="#8c4534"/><ellipse cx="265.042" cy="149.78" fill="#f4e9d3" rx="41.794" ry="27.257"/><path d="m265.042 159.037c-18.245 0-33.749-7.627-39.451-18.257-1.512 2.818-2.343 5.845-2.343 9 0 15.054 18.712 27.257 41.794 27.257s41.794-12.203 41.794-27.257c0-3.155-.831-6.182-2.343-9-5.702 10.63-21.206 18.257-39.451 18.257z" fill="#e5d6be"/><path d="m467.179 130.322c-3.273-25.572-15.704-49.985-35.948-70.601-19.016-19.366-44.578-35.126-73.924-45.573-38.977-13.878-83.2-17.706-124.519-10.776-46.221 7.751-88.265 28.567-121.587 60.2-13.542 12.857-25.368 28.288-35.15 45.866-2.013 3.619-.713 8.186 2.907 10.2 3.617 2.015 8.186.713 10.199-2.907 9.041-16.247 19.931-30.473 32.37-42.281 31.146-29.568 70.477-49.032 113.74-56.285 38.843-6.514 80.398-2.923 117.009 10.114 27.217 9.69 50.818 24.197 68.253 41.952 17.931 18.261 28.917 39.699 31.771 61.996 4.909 38.345-.845 66.224-18.107 87.737-15.323 19.096-38.25 31.629-67.961 44.57-3.549 1.546-5.366 5.693-4.085 9.349 1.422 4.059 6.126 6.122 10.075 4.402 33.115-14.423 63.913-30.612 81.505-60.04-2.595 59.486-42.869 78.023-93.358 101.249-17.922 8.244-36.454 16.768-54.574 27.795-18.403 11.198-27.826 37.987-37.801 66.348-3.512 9.984-7.143 20.308-11.201 30.025-1.473 3.528.024 7.716 3.399 9.511 3.851 2.049 8.764.286 10.442-3.73 4.224-10.115 7.928-20.645 11.51-30.829 9.062-25.763 17.621-50.098 31.448-58.511 17.38-10.577 35.512-18.917 53.046-26.983 52.707-24.245 102.496-47.143 102.228-121.673.01-.153.015-.308.015-.464l.003-49.593c.265-9.507-.265-19.823-1.705-31.068z"/><path d="m254.126 466.984c-3.468-2.266-8.116-1.29-10.379 2.178-10.872 16.649-23.346 25.26-39.254 27.101-30.388 3.515-57.716-5.177-81.224-25.837-23.909-21.012-42.492-53.746-53.559-92.321 9.619 20.681 21.5 38.211 35.074 51.291 14.358 13.835 30.305 22.628 47.397 26.133 5.585 1.145 11.253 1.717 16.995 1.717 13.158-.001 26.694-3.003 40.419-8.986 32.706-14.253 38.507-39.883 44.117-64.67 6.434-28.424 13.087-57.816 59.193-79.681 10.641-5.047 21.477-9.675 31.603-13.926 3.819-1.602 5.616-5.998 4.012-9.817-1.603-3.82-6.003-5.617-9.817-4.012-10.289 4.318-21.314 9.028-32.225 14.203-52.698 24.991-60.847 60.993-67.395 89.921-5.439 24.031-9.735 43.011-35.48 54.232-16.828 7.333-33.112 9.462-48.409 6.325-14.265-2.926-27.724-10.408-40.003-22.241-26.337-25.376-45.854-69.712-53.549-121.638-7.995-53.955-2.604-108.632 15.179-153.96 1.514-3.856-.387-8.208-4.242-9.72-3.856-1.517-8.209.387-9.72 4.242-13.774 35.108-20.49 75.451-19.753 116.82l.15 44.738c.001.271.017.539.047.804 1.187 75.233 28.001 144.844 70.063 181.812 22.726 19.972 49.623 30.308 78.495 30.307 4.734 0 9.525-.277 14.355-.837 20.392-2.359 36.776-13.415 50.088-33.8 2.265-3.466 1.291-8.113-2.178-10.378z"/><path d="m265.064 184.529c27.64 0 49.291-15.266 49.291-34.755s-21.651-34.756-49.291-34.756-49.291 15.267-49.291 34.756 21.651 34.755 49.291 34.755zm0-54.511c18.267 0 34.292 9.232 34.292 19.757 0 10.524-16.024 19.756-34.292 19.756-18.267 0-34.292-9.232-34.292-19.756 0-10.525 16.025-19.757 34.292-19.757z"/></symbol><symbol id="farm" viewBox="0 0 512 512"><title>farm</title><g><path d="m408.905 118.891-152.905-77.111-152.905 77.11-38.112 54.536v297.794c0 18.38 14.9 33.28 33.28 33.28h41.613l116.124-29.095 116.124 29.095h41.613c18.38 0 33.28-14.9 33.28-33.28v-297.794z" fill="#fc5c70"/><path d="m95.181 328.431c0-125.347 70.334-233.207 171.299-281.365l-10.48-5.286-152.905 77.11-38.112 54.536v297.794c0 18.38 14.9 33.28 33.28 33.28h38.934c-27.254-49.915-42.016-110.602-42.016-176.069z" fill="#f8485e"/><path d="m496.743 202.344-49.98-91.795c-3.216-5.907-8.099-10.736-14.042-13.886l-160.677-85.173c-10.036-5.32-22.054-5.32-32.088 0l-160.677 85.172c-5.943 3.15-10.826 7.979-14.042 13.886l-49.98 91.795c-5.769 10.596-1.856 23.863 8.74 29.633l21.799 11.869c10.596 5.769 23.864 1.856 29.633-8.74l45.049-82.739 135.522-71.837 135.522 71.838 45.049 82.739c5.769 10.596 19.037 14.509 29.633 8.74l21.799-11.869c10.597-5.77 14.51-19.037 8.74-29.633z" fill="#dadada"/><path d="m139.876 339.81h232.249v164.69h-232.249z" fill="#4f4c5f"/><path d="m175.732 402.394c0-22.035 3.295-43.124 9.298-62.583h-45.154v164.689h62.295c-16.652-28.855-26.439-64.079-26.439-102.106z" fill="#423e4f"/><path d="m372.124 310.553h-232.248c-10.483 0-18.981 8.498-18.981 18.981v20.553c0 10.483 8.498 18.981 18.981 18.981h232.249c10.483 0 18.981-8.498 18.981-18.981v-20.553c-.001-10.483-8.499-18.981-18.982-18.981z" fill="#dadada"/><path d="m256 172.004c-50.13-48.992-133.169 36.07-2.462 106.096 1.537.823 3.388.823 4.925 0 130.706-70.026 47.667-155.088-2.463-106.096z" fill="#ff8997"/><path d="m196.667 310.553h-56.792c-10.483 0-18.981 8.498-18.981 18.981v20.553c0 10.483 8.498 18.981 18.981 18.981h38.423c3.276-21.065 9.586-40.811 18.369-58.515z" fill="#ccccca"/></g><g><path d="m249.997 284.714c3.752 2.01 8.239 2.017 12.008 0 98.175-52.597 82.862-116.689 44.25-131.545-16.755-6.447-35.111-3.103-50.254 8.86-58.245-46.01-143.54 49.002-6.004 122.685zm.761-107.342c2.915 2.848 7.569 2.848 10.484 0 24.836-24.271 57.992-9.819 59.691 17.409.746 11.959-4.126 43.217-64.933 76.129-117.689-63.7-47.761-135.094-5.242-93.538z"/><path d="m454.515 253.976c5.574.242 10.709-1.055 15.273-3.54l21.799-11.869c14.244-7.756 19.497-25.559 11.74-39.806l-49.979-91.794c-3.932-7.222-9.85-13.075-17.116-16.926l-160.676-85.173c-12.246-6.492-26.868-6.491-39.113 0l-160.674 85.172c-7.266 3.852-13.184 9.704-17.117 16.926l-49.979 91.794c-7.755 14.244-2.507 32.048 11.74 39.806l21.799 11.869c4.849 2.64 10.122 3.764 15.273 3.537v133.599c0 4.142 3.358 7.5 7.5 7.5s7.5-3.358 7.5-7.5v-138.474c3.051-1.989 5.773-4.705 7.785-7.59 2.223-3.172 1.429-2.532 45.717-83.567l130.013-68.919 130.013 68.918c46.594 85.577 44.533 82.255 47.046 85.33 1.855 2.272 4.026 4.241 6.456 5.85v55.2c0 4.142 3.358 7.5 7.5 7.5s7.5-3.358 7.5-7.5zm-202.028-180.069c-142.023 75.789-136.549 71.119-138.595 74.877-48.641 89.268-45.41 84.612-48.942 87.266-4.464 3.382-10.537 3.95-15.566 1.212l-21.799-11.87c-6.963-3.792-9.531-12.494-5.739-19.459l49.979-91.794c2.52-4.627 6.312-8.378 10.968-10.846l160.676-85.171c7.846-4.16 17.215-4.159 25.062 0l160.675 85.171c4.655 2.468 8.448 6.218 10.967 10.846l49.979 91.794c3.791 6.963 1.225 15.667-5.739 19.459l-21.799 11.87c-5.379 2.928-11.87 2.111-16.396-1.895-2.625-2.345-.61.661-48.112-86.583-2.045-3.757 3.438.917-138.595-74.877-2.183-1.158-4.811-1.172-7.024 0z"/><path d="m64.984 410.071c-4.142 0-7.5 3.358-7.5 7.5v53.65c0 22.486 18.294 40.779 40.779 40.779h315.472c22.486 0 40.779-18.294 40.779-40.779v-136.903c0-4.142-3.358-7.5-7.5-7.5s-7.5 3.358-7.5 7.5v136.903c0 14.215-11.565 25.78-25.78 25.78h-34.113v-121.519c10.959-3.243 18.981-13.396 18.981-25.392v-20.553c0-14.601-11.879-26.481-26.481-26.481h-232.244c-14.601 0-26.481 11.879-26.481 26.481v20.553c0 11.996 8.022 22.149 18.981 25.392v121.518h-34.113c-14.215 0-25.779-11.564-25.779-25.78v-53.65c-.001-4.141-3.358-7.499-7.501-7.499zm63.412-59.982v-20.553c0-6.331 5.15-11.481 11.481-11.481h232.246c6.33 0 11.481 5.15 11.481 11.481v20.553c0 6.33-5.15 11.48-11.481 11.48h-232.246c-6.331 0-11.481-5.15-11.481-11.48zm18.981 26.48h217.247v120.431h-217.247z"/></g></symbol><symbol id="login" viewBox="0 0 512 512"><title>login</title><path style="fill:#FEA832;" d="M360,75.001v361c0,8.399-6.599,15-15,15H180v-391h165C353.401,60.001,360,66.6,360,75.001z"/><path style="fill:#FE9923;" d="M360,256.001v180c0,8.399-6.599,15-15,15H180v-195H360z"/><path style="fill:#994C0F;" d="M210,15.001v482c0,10.499-10.201,17.399-19.799,14.099l-180-61C4.2,448.3,0,442.6,0,436.001v-361 C0,68.4,4.2,62.7,10.201,60.9l180-60C199.501-2.4,210,4.5,210,15.001z"/><path style="fill:#713708;" d="M210,256.001v241c0,10.499-10.201,17.399-19.799,14.099l-180-61C4.2,448.3,0,442.6,0,436.001v-180 H210z"/><path style="fill:#FEA832;" d="M150,256.001c0,8.399-6.599,15-15,15s-15-6.601-15-15c0-8.401,6.599-15,15-15S150,247.6,150,256.001z "/><path style="fill:#FE9923;" d="M150,256.001c0,8.399-6.599,15-15,15s-15-6.601-15-15H150z"/><path style="fill:#FD003A;" d="M512,241.001v30c0,8.399-6.599,15-15,15H375v45c0,12.299-14.399,19.499-24.3,11.7l-87.299-73.2 c-5.402-2.701-8.401-8.101-8.401-13.5c0-5.399,2.999-10.8,8.401-13.5l87.299-73.2c9.901-7.8,24.3-0.601,24.3,11.7v45h122 C505.401,226.001,512,232.6,512,241.001z"/><path style="fill:#E50027;" d="M512,256.001v15c0,8.399-6.599,15-15,15H375v45c0,12.299-14.399,19.499-24.3,11.7l-87.299-73.2 c-5.402-2.701-8.401-8.101-8.401-13.5L512,256.001L512,256.001z"/></symbol><symbol id="login-1" viewBox="0 0 511.369 511.369"><title>login-1</title><path d="m490.351.026h-317.334c-24.638 0-44.714 19.901-44.997 44.473-.005.285-.003-9.955-.003 315.194 0 25.027 20.478 45 44.789 45h317.545c11.598 0 21-9.402 21-21v-362.667c0-11.597-9.402-21-21-21z" fill="#f1ebeb"/><path d="m479.221 3.219-170.667 106.667c-6.14 3.837-9.87 10.567-9.87 17.808v362.666c0 16.565 18.279 26.467 32.13 17.808l170.667-106.667c6.14-3.837 9.87-10.567 9.87-17.808v-362.667c0-16.462-18.158-26.544-32.13-17.807z" fill="#7be3d4"/><path d="m362.018 287.36c-11.598 0-21-9.402-21-21v-21.334c0-11.598 9.402-21 21-21s21 9.402 21 21v21.334c0 11.598-9.403 21-21 21z" fill="#5caa9f"/><g fill="#ccc"><path d="m138.351 191.36h-117.334c-11.598 0-21-9.402-21-21s9.402-21 21-21h117.334c11.598 0 21 9.402 21 21s-9.402 21-21 21z"/><path d="m191.668 234.027c-16.971 0-27.311-19.565-16.783-33.602l22.55-30.065-22.55-30.067c-6.959-9.278-5.078-22.44 4.2-29.399 9.28-6.959 22.44-5.076 29.399 4.2l32 42.667c5.601 7.467 5.601 17.733 0 25.2l-32 42.666c-4.125 5.5-10.431 8.4-16.816 8.4z"/><path d="m74.351 319.36h-53.334c-11.598 0-21-9.402-21-21s9.402-21 21-21h53.334c11.598 0 21 9.402 21 21s-9.402 21-21 21z"/></g></symbol><symbol id="cloudy" viewBox="0 0 128 128"><title>cloudy</title><path d="m47.31 71.057c.12 0 .236.014.355.018a21.073 21.073 0 0 1 40.654-7.444 16.44 16.44 0 0 1 26.451 7.469c.253-.018.505-.038.762-.038a10.719 10.719 0 0 1 0 21.437h-68.222a10.719 10.719 0 0 1 0-21.437z" fill="#beebfa"/><path d="m11.471 54.3c.233 0 .461.019.69.035a14.908 14.908 0 0 1 23.989-6.774 19.107 19.107 0 0 1 36.463 3.15 21.018 21.018 0 0 0 -24.948 20.364c-.119 0-.235-.018-.355-.018a10.663 10.663 0 0 0 -7.073 2.679h-28.766a9.721 9.721 0 1 1 0-19.441z" fill="#9ee2f8"/></symbol><symbol id="trolley" viewBox="0 0 512 512"><title>trolley</title><g> <g> <path d="M271,91V31H141v60H0v290h412V91H271z M171,61h70v30h-70V61z M382,351H30V121h352V351z"/> </g> </g><g> <g> <polygon points="442,91 442,411 0,411 0,441 100,441 372,441 472,441 472,121 512,121 512,91 "/> </g> </g><g> <g> <path d="M100,441c-11.028,0-20,8.972-20,20s8.972,20,20,20s20-8.972,20-20S111.028,441,100,441z"/> </g> </g><g> <g> <path d="M372,441c-11.028,0-20,8.972-20,20s8.972,20,20,20s20-8.972,20-20S383.028,441,372,441z"/> </g> </g></symbol><symbol id="cover" viewBox="0 0 512 512"><title>cover</title><g> <g> <path d="M256,144.859c-128.075,0-232.273,97.193-232.273,216.663H61.19c0-98.81,87.39-179.2,194.81-179.2 s194.81,80.39,194.81,179.2h37.463C488.273,242.057,384.081,144.859,256,144.859z"/> </g> </g><g> <g> <path d="M493.268,346.537H18.732C8.386,346.537,0,354.922,0,365.268C0,375.614,8.386,384,18.732,384h474.537 c10.346,0,18.732-8.386,18.732-18.732C512,354.922,503.614,346.537,493.268,346.537z"/> </g> </g><g> <g> <path d="M493.268,427.707H18.732C8.386,427.707,0,436.093,0,446.439s8.386,18.732,18.732,18.732h474.537 c10.346,0,18.732-8.386,18.732-18.732S503.614,427.707,493.268,427.707z"/> </g> </g><g> <g> <path d="M259.122,46.829c-36.152,0-65.561,29.409-65.561,65.561s29.409,65.561,65.561,65.561 c36.152,0,65.561-29.409,65.561-65.561S295.274,46.829,259.122,46.829z M259.122,140.488c-15.491,0-28.098-12.606-28.098-28.098 c0-15.491,12.606-28.098,28.098-28.098c15.491,0,28.098,12.606,28.098,28.098S274.613,140.488,259.122,140.488z"/> </g> </g></symbol><symbol id="platter" viewBox="0 0 512 512"><title>platter</title><path d="m496 398.052h-480a6 6 0 0 0 0 12h480a6 6 0 0 0 0-12z"/><path d="m156.667 210.4c-25.45 10.137-46.4 28.371-59 51.346a6 6 0 1 0 10.521 5.771c11.262-20.537 30.057-36.861 52.923-45.968a6 6 0 0 0 -4.44-11.149z"/><path d="m32.364 366.416h447.273a6 6 0 0 0 0-12h-4.472c-.624-53.617-23.394-103.917-64.307-141.854-34.8-32.267-79.227-52.337-127.264-57.9a52.794 52.794 0 0 0 28.276-46.709 6 6 0 0 0 -6-6h-93.506a6 6 0 0 0 -6 6 52.787 52.787 0 0 0 27.259 46.164c-50.033 4.681-96.429 25.018-132.482 58.45-40.913 37.933-63.683 88.233-64.306 141.849h-4.471a6 6 0 1 0 0 12zm186.436-252.468h80.63a40.758 40.758 0 0 1 -80.626 0zm37.2 51.117c113.43 0 205.847 84.735 207.163 189.351h-414.327c1.316-104.616 93.733-189.351 207.164-189.351z"/></symbol><symbol id="tray" viewBox="0 0 433.12 433.12"><title>tray</title><g> <g> <path d="M403.28,316.611c-0.899-91.95-68.556-169.582-159.52-183.04c4.194-5.706,6.464-12.599,6.48-19.68 c0.1-18.601-14.897-33.761-33.498-33.861c-18.601-0.1-33.761,14.897-33.861,33.498c-0.039,7.202,2.232,14.226,6.479,20.043 C97.863,147.193,30.1,225.705,30,318.211c0,4.418,3.582,8,8,8h357.28c4.418,0,8-3.582,8-8 C403.333,317.679,403.333,317.143,403.28,316.611z M198.88,113.971c0-9.764,7.916-17.68,17.68-17.68s17.68,7.916,17.68,17.68 c0,9.764-7.916,17.68-17.68,17.68C206.796,131.651,198.88,123.735,198.88,113.971L198.88,113.971z M46.16,310.211 c4.351-90.975,79.321-162.531,170.4-162.64v0.08c91.049,0.107,166.008,71.617,170.4,162.56H46.16z"/> </g> </g><g> <g> <path d="M425.12,337.091H8c-4.418,0-8,3.582-8,8s3.582,8,8,8h417.12c4.418,0,8-3.582,8-8S429.538,337.091,425.12,337.091z"/> </g> </g><g> <g> <path d="M155,176.731c-1.657-4.109-6.331-6.097-10.44-4.44c-36.864,17.74-65.707,48.696-80.8,86.72 c-1.701,4.087,0.233,8.779,4.32,10.48s8.779-0.233,10.48-4.32c13.671-33.919,39.281-61.663,72-78 C154.669,185.514,156.657,180.84,155,176.731z"/> </g> </g></symbol><symbol id="plate" viewBox="0 0 512 512"><title>plate</title><path d="M510.4,199.2c0-1.6-1.6-1.6-1.6-3.2s-1.6-1.6-3.2-1.6l-1.6-1.6c0,0,0,0-1.6,0c-1.6,0-1.6,0-3.2-1.6c-1.6,0-1.6,0-3.2,0 c0,0,0,0-1.6,0H16h-1.6c-1.6,0-1.6,0-3.2,0c-1.6,0-1.6,0-3.2,1.6H6.4c0,0,0,0-1.6,1.6c-1.6,0-1.6,1.6-1.6,1.6s-1.6,1.6-1.6,3.2 S0,200.8,0,202.4c0,1.6,0,1.6,0,3.2v1.6v1.6c0,1.6,0,1.6,0,3.2c0,1.6,0,1.6,1.6,3.2v1.6L51.2,292c9.6,16,32,28.8,51.2,28.8H416 c19.2,0,40-12.8,51.2-28.8l43.2-75.2c0,0,0,0,0-1.6c0-1.6,0-1.6,1.6-3.2c0-1.6,0-1.6,0-3.2c0,0,0,0,0-1.6v-1.6c0-1.6,0-1.6,0-3.2 C512,200.8,510.4,200.8,510.4,199.2z M440,274.4c-4.8,6.4-16,12.8-22.4,12.8H102.4c-8,0-19.2-6.4-24-12.8l-32-51.2h422.4 L440,274.4z"/></symbol><symbol id="taco" viewBox="0 0 512.001 512.001"><title>taco</title><path style="fill:#9E7325;" d="M327.085,171.114c-94.883,1.899-170.28,80.476-170.28,175.265l260.771,59.622h25.566l0,0 c33.887,0,61.358-27.438,61.358-61.284l0,0C504.5,247.634,424.73,169.159,327.085,171.114z"/><path style="fill:#C4C65A;" d="M426.033,202.835c-0.496-1.9-1.185-3.77-2.057-5.579c-0.911-1.781-2.027-3.483-3.301-5.099 c-0.638-0.807-1.309-1.578-2.009-2.31c-0.718-0.719-1.479-1.388-2.257-2.022c-1.56-1.266-3.222-2.367-4.956-3.284 c-3.548-1.77-7.381-2.806-11.32-2.963c-7.83-0.275-13.895-6.324-14.485-14.04c-0.132-1.97-0.474-3.918-1.013-5.82 c-0.564-1.873-1.351-3.671-2.307-5.408c-1.877-3.514-4.669-6.511-7.961-9.039c-6.741-4.881-15.02-6.73-22.758-4.791 c-7.548,1.71-15.143-2.165-17.87-9.529c-1.393-3.693-3.617-7.018-6.48-9.814c-2.91-2.684-6.406-4.969-10.398-6.263 c-3.943-1.427-8.11-1.802-12.067-1.458c-3.98,0.414-7.803,1.721-11.167,3.75c-6.691,4.154-15.042,2.592-20.031-3.333 c-1.256-1.53-2.676-2.942-4.239-4.165c-1.566-1.174-3.273-2.193-5.087-3.044c-0.907-0.425-1.841-0.809-2.797-1.148 c-0.957-0.322-1.938-0.56-2.936-0.775c-1.996-0.419-4.064-0.655-6.163-0.698c-2.099,0.044-4.167,0.28-6.163,0.698 c-0.998,0.214-1.979,0.453-2.936,0.775c-0.956,0.34-1.89,0.723-2.797,1.148c-1.814,0.851-3.521,1.869-5.088,3.044 c-1.563,1.223-2.983,2.635-4.239,4.165c-4.988,5.924-13.339,7.486-20.032,3.332c-3.364-2.029-7.186-3.336-11.166-3.75 c-3.957-0.344-8.124,0.031-12.067,1.458c-3.992,1.294-7.488,3.58-10.398,6.264c-2.863,2.796-5.087,6.122-6.48,9.815 c-2.726,7.363-10.32,11.238-17.871,9.529c-7.736-1.939-16.015-0.09-22.756,4.791c-3.292,2.528-6.084,5.526-7.962,9.039 c-0.956,1.737-1.743,3.536-2.308,5.409c-0.539,1.902-0.881,3.85-1.013,5.82c-0.588,7.715-6.653,13.764-14.485,14.04 c-3.939,0.157-7.771,1.193-11.319,2.963c-1.734,0.918-3.395,2.019-4.956,3.284c-0.778,0.634-1.54,1.303-2.257,2.022 c-0.7,0.732-1.371,1.503-2.009,2.31c-1.274,1.616-2.39,3.318-3.3,5.099c-0.872,1.809-1.562,3.679-2.057,5.579 c-1.035,3.773-1.081,7.805-0.396,11.658c0.174,0.953,0.25,1.899,0.234,2.828c0.005,0.942-0.08,1.868-0.249,2.767 c-0.339,1.798-1.015,3.49-1.982,5.001c-1.892,3.045-4.848,5.441-8.652,6.463c-3.759,1.087-7.272,2.953-10.287,5.484 c-1.473,1.282-2.833,2.724-4.057,4.302c-0.612,0.789-1.19,1.612-1.73,2.465c-0.519,0.864-0.991,1.763-1.428,2.687 c-0.872,1.85-1.558,3.754-2.051,5.68c-0.466,1.937-0.695,3.915-0.755,5.869c-0.042,1.962,0.06,3.892,0.451,5.818 c0.384,1.923,0.962,3.803,1.736,5.615c0.777,1.799,1.103,3.6,1.183,5.471l200.326,65.808l136.353-95.109 c34.771-7.225,39.02-31.149,39.02-31.149C427.114,210.639,427.068,206.607,426.033,202.835z"/><path style="fill:#915729;" d="M387.408,245.641c-14.46,11.751-81.002,50.627-136.353,95.109l145.186,47.694 c2.17-3.356,5.193-5.678,8.583-6.966c1.709-0.614,3.471-1.086,5.353-1.126c1.858-0.095,3.753,0.043,5.696,0.608 c3.89,1.057,8.129,1.077,12.258-0.007c2.091-0.5,4.058-1.398,6.041-2.404c1.918-1.085,3.767-2.399,5.462-3.925 c3.333-3.12,5.9-6.857,7.292-10.891c0.356-1.002,0.657-2.009,0.9-3.014c0.214-1.028,0.356-2.064,0.448-3.087 c0.09-1.024,0.121-2.04,0.093-3.043c-0.052-1.019-0.182-2.038-0.36-3.031c-0.356-1.962-0.32-3.855-0.091-5.715 c0.131-0.921,0.344-1.813,0.636-2.673c0.282-0.865,0.582-1.729,0.992-2.537c0.397-0.815,0.892-1.582,1.423-2.325 c0.506-0.754,1.087-1.465,1.739-2.127c1.339-1.311,2.838-2.483,4.607-3.395c0.9-0.461,1.78-0.98,2.634-1.554 c0.819-0.586,1.602-1.23,2.362-1.925c0.758-0.695,1.488-1.441,2.185-2.234c0.663-0.802,1.268-1.658,1.85-2.552 c0.571-0.896,1.135-1.827,1.604-2.805c0.447-0.982,0.854-2,1.216-3.046c0.776-2.085,1.137-4.318,1.386-6.591 c0.231-2.275,0.056-4.55-0.205-6.733c-0.392-2.186-0.972-4.292-1.78-6.254c-0.889-1.958-1.914-3.781-3.16-5.41 c-1.305-1.622-2.756-3.061-4.334-4.282c-1.603-1.195-2.967-2.587-3.977-4.125c-1.021-1.536-1.901-3.17-2.359-4.924 c-0.492-1.744-0.821-3.536-0.719-5.409c0.08-1.871,0.406-3.673,1.183-5.472c0.773-1.811,1.352-3.691,1.736-5.614 c0.391-1.925,0.493-3.856,0.451-5.818c-0.06-1.955-0.289-3.932-0.755-5.869c-0.494-1.925-1.179-3.83-2.051-5.68 c-0.437-0.924-0.909-1.823-1.428-2.687c-0.541-0.854-1.118-1.676-1.73-2.465c-1.224-1.578-2.584-3.02-4.057-4.302 c-0.335-0.281-0.676-0.554-1.023-0.819c-4.431-3.38-9.899-5.814-15.431-6.503C416.741,227.948,404.835,231.479,387.408,245.641z"/><g> <ellipse style="fill:#C95A3A;" cx="265.2" cy="203.761" rx="61.36" ry="61.28"/> <ellipse style="fill:#C95A3A;" cx="130.22" cy="221.131" rx="61.36" ry="61.28"/> <ellipse style="fill:#C95A3A;" cx="68.858" cy="308.871" rx="61.36" ry="61.28"/> <ellipse style="fill:#C95A3A;" cx="361.33" cy="293.651" rx="61.36" ry="61.28"/> </g><path style="fill:#A7A951;" d="M353.689,191.307c10.969-2.936,21.007,7.09,18.068,18.046l-5.73,21.361l-5.73,21.361 c-2.939,10.956-16.651,14.626-24.681,6.605l-15.656-15.637l-15.656-15.637c-8.03-8.02-4.356-21.716,6.613-24.651l21.386-5.724 L353.689,191.307z"/><path style="fill:#D1D274;" d="M344.932,228.53l5.73-21.361c1.448-5.398-0.262-10.562-3.674-14.069l-14.686,3.93l-21.386,5.723 c-10.969,2.936-14.643,16.631-6.613,24.651l15.656,15.637l14.41,14.393c2.241-1.841,3.985-4.389,4.832-7.545L344.932,228.53z"/><path style="fill:#A7A951;" d="M190.147,150.073c5.678-7.402,19.874-7.402,25.552,0l11.07,14.432l11.07,14.432 c5.678,7.402-1.42,16.655-12.776,16.655h-22.141h-22.141c-11.356,0-18.454-9.253-12.776-16.655l11.07-14.432L190.147,150.073z"/><path style="fill:#D1D274;" d="M210.307,174.568l-11.07-14.432c-2.797-3.647-7.663-5.488-12.558-5.542l-7.602,9.91l-11.07,14.432 c-5.678,7.402,1.42,16.655,12.776,16.655h22.141h20.379c0.281-2.174-0.289-4.46-1.925-6.592L210.307,174.568z"/><path style="fill:#A7A951;" d="M36.573,236.448c-1.225-9.244,8.812-19.27,18.068-18.046l18.045,2.386l18.045,2.386 c9.256,1.224,10.787,12.78,2.757,20.8l-15.656,15.637l-15.656,15.637c-8.03,8.021-19.6,6.491-20.825-2.754l-2.389-18.023 L36.573,236.448z"/><path style="fill:#D1D274;" d="M68.17,239.53l-18.045-2.386c-4.56-0.603-9.304,1.531-12.803,4.951l1.641,12.376l2.389,18.023 c1.225,9.244,12.795,10.774,20.825,2.754l15.656-15.637l14.41-14.393c-1.34-1.736-3.362-2.949-6.028-3.302L68.17,239.53z"/><path style="fill:#EBD37A;" d="M34.088,346.379c0-94.788,75.397-173.366,170.28-175.265c97.646-1.954,177.415,76.52,177.415,173.603 l0,0c0,33.846,27.471,61.284,61.358,61.284l0,0H93.783C60.814,406.001,34.088,379.307,34.088,346.379L34.088,346.379z"/><path style="fill:#D9B43A;" d="M382.357,353.001H34.464c3.3,29.81,28.593,53,59.319,53h349.359 C412.07,406.001,386.409,382.927,382.357,353.001z"/><path d="M458.03,215.786c-2.949-2.907-7.698-2.873-10.605,0.076c-2.908,2.95-2.874,7.699,0.076,10.606 c1.601,1.578,3.156,3.19,4.684,4.82c-0.426-0.357-0.859-0.704-1.294-1.036c-5.669-4.324-12.436-7.159-19.052-7.982 c-0.161-0.02-0.318-0.033-0.478-0.052c1.69-3.358,2.287-5.671,2.355-5.953c0.037-0.152,0.069-0.306,0.097-0.46 c0.916-5.144,0.727-10.315-0.522-14.865c-0.617-2.364-1.478-4.698-2.557-6.939c-0.026-0.054-0.053-0.108-0.08-0.162 c-1.103-2.156-2.479-4.284-4.098-6.339c-0.779-0.984-1.61-1.939-2.469-2.837c-0.037-0.04-0.075-0.079-0.114-0.117 c-0.845-0.846-1.771-1.677-2.839-2.546c-1.933-1.569-4.01-2.944-6.172-4.089c-0.054-0.028-0.106-0.055-0.16-0.082 c-4.587-2.289-9.422-3.549-14.406-3.748c-3.907-0.137-6.965-3.129-7.264-7.049c-0.167-2.474-0.598-4.95-1.281-7.361 c-0.011-0.039-0.022-0.077-0.034-0.116c-0.688-2.287-1.67-4.596-2.873-6.781c-2.265-4.239-5.633-8.093-10.01-11.454 c-0.056-0.043-0.112-0.085-0.169-0.126c-8.612-6.236-19.131-8.427-28.88-6.016c-3.989,0.873-7.733-1.108-9.129-4.876 c-1.771-4.695-4.549-8.912-8.257-12.534c-0.051-0.05-0.103-0.099-0.155-0.147c-3.976-3.667-8.365-6.306-13.049-7.845 c-4.707-1.684-9.811-2.302-15.151-1.834c-0.042,0.003-0.083,0.007-0.125,0.012c-5.001,0.52-9.935,2.175-14.348,4.838 c-3.412,2.119-7.665,1.383-10.279-1.721c-1.642-1.999-3.463-3.786-5.414-5.312c-0.04-0.032-0.081-0.063-0.122-0.094 c-1.965-1.473-4.118-2.763-6.402-3.834c-1.122-0.525-2.289-1.005-3.469-1.424c-0.041-0.015-0.082-0.029-0.124-0.043 c-1.402-0.471-2.738-0.78-3.785-1.005c-2.458-0.516-4.997-0.804-7.547-0.856c-0.104-0.002-0.207-0.002-0.311,0 c-2.549,0.053-5.088,0.341-7.586,0.865c-1.01,0.217-2.349,0.527-3.749,0.998c-0.04,0.014-0.081,0.028-0.121,0.042 c-1.183,0.42-2.351,0.9-3.469,1.425c-2.281,1.069-4.435,2.359-6.401,3.832c-0.042,0.032-0.084,0.064-0.126,0.097 c-1.949,1.526-3.771,3.313-5.354,5.241c-2.671,3.174-6.923,3.911-10.42,1.741c-4.331-2.613-9.264-4.268-14.265-4.788 c-0.042-0.004-0.083-0.008-0.125-0.012c-5.346-0.467-10.444,0.151-15.151,1.834c-4.685,1.539-9.074,4.179-13.05,7.847 c-0.052,0.048-0.104,0.097-0.154,0.146c-3.709,3.622-6.487,7.84-8.273,12.578c-1.38,3.726-5.125,5.706-9.115,4.832 c-9.748-2.409-20.266-0.219-28.877,6.017c-0.058,0.042-0.113,0.083-0.169,0.126c-4.378,3.361-7.745,7.215-10.01,11.455 c-0.214,0.401-0.382,0.815-0.517,1.233c-27.216,6.092-48.702,28.431-53.088,56.482l-6.574-0.869 c-6.646-0.881-13.851,1.828-19.262,7.24c-5.403,5.405-8.104,12.592-7.224,19.227l2.019,15.236C11.839,263.974,0,285.645,0,308.869 c0,22.546,10.893,43.357,29.277,56.26c8.145,27.912,33.97,48.371,64.506,48.371h286.359c4.143,0,7.5-3.358,7.5-7.5 s-3.357-7.5-7.5-7.5H93.782c-28.779,0-52.193-23.382-52.193-52.123c0-90.708,73.09-165.968,162.93-167.766 c45.124-0.905,87.741,15.974,119.928,47.523c32.139,31.501,49.838,73.614,49.838,118.581c0,17.638,6.687,33.742,17.653,45.929 c0.298,0.401,0.64,0.778,1.027,1.124c0.03,0.027,0.063,0.05,0.094,0.076c12.565,13.317,30.363,21.654,50.084,21.654 c37.969,0,68.858-30.856,68.858-68.784C512,295.88,492.833,250.092,458.03,215.786z M441.799,242.184 c0.235,0.179,0.466,0.363,0.692,0.552c1.084,0.95,2.096,2.026,3.003,3.195c0.451,0.583,0.88,1.191,1.273,1.809 c0.352,0.589,0.689,1.23,1.028,1.945c0.655,1.392,1.179,2.836,1.557,4.292c0.31,1.307,0.49,2.749,0.536,4.222 c0.035,1.651-0.061,2.974-0.308,4.189c-0.285,1.426-0.715,2.817-1.268,4.111c-1.075,2.494-1.661,5.149-1.786,8.037 c-0.134,2.467,0.175,4.943,0.972,7.787c0.615,2.315,1.712,4.64,3.327,7.069c1.458,2.221,3.375,4.23,5.699,5.973 c1.062,0.828,2.062,1.817,2.976,2.942c0.773,1.026,1.487,2.258,2.179,3.76c0.525,1.304,0.943,2.78,1.244,4.394 c0.178,1.53,0.326,3.275,0.171,4.802c-0.17,1.552-0.417,3.335-0.959,4.79c-0.021,0.054-0.04,0.109-0.059,0.164 c-0.275,0.794-0.585,1.575-0.922,2.32c-0.315,0.646-0.75,1.349-1.099,1.899c-0.459,0.706-0.877,1.289-1.274,1.777 c-0.493,0.556-1.01,1.082-1.531,1.56c-0.54,0.494-1.058,0.919-1.578,1.298c-0.58,0.384-1.178,0.734-1.796,1.05 c-2.298,1.185-4.398,2.724-6.42,4.706c-0.03,0.03-0.061,0.06-0.091,0.09c-0.947,0.961-1.809,2.009-2.561,3.116 c-0.823,1.159-1.454,2.199-1.976,3.26c-0.618,1.228-1.036,2.413-1.395,3.513c-0.433,1.279-0.75,2.619-0.944,3.982 c-0.006,0.046-0.012,0.091-0.018,0.137c-0.353,2.853-0.302,5.461,0.151,7.955c0.129,0.721,0.212,1.396,0.247,2.008 c0.017,0.682-0.007,1.384-0.067,2.075c-0.068,0.756-0.168,1.466-0.298,2.113c-0.176,0.71-0.395,1.435-0.671,2.211 c-0.952,2.758-2.774,5.458-5.274,7.812c-1.199,1.073-2.524,2.029-3.94,2.842c-1.402,0.708-2.878,1.395-4.233,1.718 c-0.054,0.013-0.108,0.027-0.162,0.041c-2.801,0.735-5.684,0.749-8.335,0.037c-2.53-0.725-5.144-1.013-7.991-0.879 c-3.161,0.087-5.854,0.932-7.611,1.563c-0.043,0.016-0.087,0.032-0.13,0.048c-1.013,0.385-1.987,0.833-2.927,1.333 c-4.17-5.857-7.199-12.574-8.753-19.835c0.04-0.018,0.082-0.03,0.122-0.049c24.05-11.297,39.589-35.739,39.589-62.27 c0-19.209-7.982-36.785-20.946-49.365c4.04-2.227,7.426-4.659,10.276-7.128c3.243-0.462,6.667-0.469,10.466,0.002 C434.009,237.656,438.202,239.44,441.799,242.184z M151.313,149.754c0.056,0.014,0.111,0.027,0.167,0.04 c11.392,2.578,22.554-3.413,26.545-14.198c0.979-2.598,2.536-4.959,4.628-7.021c2.383-2.181,4.921-3.718,7.545-4.569 c0.081-0.026,0.16-0.053,0.24-0.082c2.618-0.948,5.659-1.309,8.801-1.043c2.801,0.3,5.567,1.235,7.925,2.656 c9.748,6.051,22.25,4.003,29.781-4.943c0.929-1.131,1.94-2.131,3.006-2.973c1.132-0.84,2.38-1.583,3.713-2.208 c0.662-0.311,1.354-0.596,2.058-0.849c0.679-0.224,1.458-0.401,2.028-0.524c1.501-0.314,3.056-0.495,4.625-0.537 c1.568,0.042,3.122,0.222,4.584,0.528c0.895,0.193,1.537,0.358,2.068,0.533c0.703,0.252,1.396,0.538,2.059,0.848 c1.332,0.625,2.58,1.368,3.71,2.208c1.066,0.841,2.077,1.841,3.063,3.042c7.475,8.876,19.976,10.927,29.643,4.923 c2.438-1.47,5.204-2.405,8.006-2.706c3.143-0.265,6.183,0.096,8.803,1.044c0.079,0.028,0.159,0.056,0.239,0.082 c2.624,0.851,5.162,2.388,7.545,4.568c2.091,2.062,3.647,4.423,4.611,6.98c4.011,10.828,15.183,16.816,26.56,14.24 c0.056-0.013,0.111-0.026,0.167-0.04c5.436-1.36,11.426-0.076,16.452,3.53c2.629,2.034,4.591,4.241,5.874,6.642 c0.729,1.324,1.293,2.634,1.678,3.895c0.389,1.388,0.635,2.809,0.734,4.288c0.882,11.548,10.21,20.561,21.664,20.963 c2.784,0.111,5.54,0.831,8.189,2.14c1.274,0.681,2.505,1.5,3.65,2.43c0.63,0.513,1.164,0.987,1.629,1.448 c0.518,0.545,1.019,1.124,1.482,1.709c0.987,1.252,1.819,2.528,2.474,3.792c0.642,1.345,1.152,2.738,1.542,4.228 c0.66,2.407,0.764,5.17,0.303,8.012c-0.567,1.815-4.984,13.947-23.354,21.245c-6.427-3.718-13.526-6.426-21.099-7.908l4.351-16.217 c2.081-7.758-0.067-15.784-5.747-21.468c-5.688-5.691-13.727-7.845-21.503-5.767l-19.532,5.227 c-7.256-30.915-34.828-52.966-67.016-52.966c-14.688,0-28.67,4.558-40.495,13.172l-3.058-3.987 c-4.076-5.314-11.077-8.487-18.728-8.487c-7.649,0-14.65,3.173-18.727,8.487l-15.369,20.036 c-9.852-6.687-21.111-10.655-32.92-11.619C140.706,149.518,146.25,148.487,151.313,149.754z M238.502,166.132l-4.66-6.075 c9.178-6.591,19.997-10.079,31.361-10.079c25.332,0,47.014,17.445,52.526,41.843l-8.755,2.343c-0.027,0.007-0.053,0.017-0.08,0.024 C287.655,179.905,263.763,170.384,238.502,166.132z M130.216,167.343c7.826,0,15.426,1.67,22.407,4.872 c-25.524,8.22-49.023,22.157-68.939,41.116l-6.618-0.875C81.247,186.812,103.739,167.343,130.216,167.343z M46.971,227.466 c2.069-2.07,4.695-3.237,6.687-2.975l17.248,2.281c-9.121,10.6-16.93,22.084-23.331,34.249l-3.566-26.904 C43.746,232.139,44.909,229.529,46.971,227.466z M15,308.869c0-15.634,6.865-30.371,18.42-40.481l0.496,3.745 c0.489,3.69,2.054,6.928,4.428,9.404c-7.246,19.217-11.241,39.691-11.706,60.707C19.194,332.884,15,321.212,15,308.869z M204.218,163.615c-5.684,0.114-11.323,0.499-16.907,1.134l8.788-11.456c1.219-1.589,3.897-2.616,6.824-2.616 c2.928,0,5.606,1.027,6.825,2.617l8.092,10.55C213.328,163.602,208.785,163.525,204.218,163.615z M324.132,205.636l31.497-8.429 c3.653-0.979,6.124,0.988,7.015,1.88c0.887,0.887,2.845,3.344,1.869,6.978l-8.95,33.361c-6.102-8.491-12.985-16.521-20.617-24.002 C331.452,211.999,327.842,208.741,324.132,205.636z M366.255,256.207c0.52-1.135,0.957-2.312,1.285-3.534l3.216-11.987 c25.513,4.488,44.434,26.794,44.434,52.961c0,18.847-10.036,36.346-25.979,46.016C388.404,309.943,380.479,281.492,366.255,256.207z M443.142,398.501c-12.044,0-23.177-3.97-32.157-10.666c1.041-0.02,1.946,0.08,2.797,0.328c0.041,0.012,0.083,0.024,0.125,0.035 c5.173,1.406,10.723,1.416,16.052,0.03c2.894-0.703,5.468-1.905,7.607-2.99c0.1-0.051,0.199-0.104,0.297-0.159 c2.441-1.38,4.726-3.022,6.791-4.882c0.035-0.032,0.07-0.064,0.105-0.097c4.304-4.028,7.505-8.841,9.233-13.853 c0.442-1.243,0.82-2.509,1.124-3.763c0.019-0.079,0.036-0.157,0.053-0.236c0.258-1.241,0.452-2.568,0.577-3.959 c0.114-1.31,0.154-2.625,0.118-3.911c-0.002-0.056-0.004-0.112-0.007-0.168c-0.064-1.262-0.221-2.599-0.471-3.992 c-0.181-0.994-0.191-2.07-0.035-3.381c0.065-0.434,0.166-0.852,0.3-1.244c0.012-0.034,0.022-0.068,0.034-0.103 c0.18-0.553,0.37-1.113,0.548-1.463c0.018-0.035,0.035-0.07,0.053-0.105c0.161-0.331,0.416-0.739,0.78-1.247 c0.044-0.062,0.087-0.124,0.129-0.187c0.236-0.351,0.509-0.687,0.813-1c0.917-0.891,1.813-1.557,2.724-2.026 c1.156-0.592,2.299-1.266,3.396-2.003c0.063-0.042,0.125-0.085,0.187-0.129c1.026-0.735,2.054-1.571,3.062-2.492 c0.953-0.873,1.88-1.821,2.755-2.817c0.049-0.056,0.098-0.113,0.146-0.17c0.786-0.951,1.557-2.012,2.396-3.303 c0.638-1.002,1.379-2.213,2.04-3.591c0.021-0.044,0.042-0.089,0.063-0.134c0.532-1.168,1.02-2.387,1.45-3.623 c1.098-2.984,1.528-6.003,1.787-8.363c0.318-3.132,0.05-6.125-0.22-8.382c-0.018-0.145-0.039-0.29-0.064-0.433 c-0.501-2.793-1.25-5.413-2.227-7.786c-0.034-0.083-0.07-0.167-0.107-0.249c-1.199-2.638-2.517-4.882-4.029-6.861 c-0.037-0.049-0.075-0.098-0.114-0.146c-1.678-2.087-3.559-3.942-5.588-5.513c-0.036-0.027-0.071-0.055-0.107-0.082 c-0.933-0.695-1.689-1.465-2.215-2.265c-0.722-1.086-1.163-1.958-1.348-2.666c-0.013-0.047-0.025-0.094-0.039-0.141 c-0.348-1.235-0.49-2.177-0.443-3.047c0.05-1.145,0.228-2.016,0.588-2.851c0.969-2.268,1.706-4.654,2.188-7.065 c0.463-2.275,0.659-4.719,0.598-7.542c-0.078-2.587-0.401-5.074-0.959-7.394c-0.009-0.037-0.018-0.074-0.027-0.111 c-0.613-2.39-1.465-4.748-2.536-7.024c-0.573-1.211-1.156-2.305-1.781-3.344c-0.029-0.048-0.059-0.097-0.089-0.145 c-0.222-0.352-0.461-0.697-0.696-1.044C483.542,268.477,497,305.527,497,344.717C497,374.374,472.839,398.501,443.142,398.501z"/><circle cx="139.09" cy="255.001" r="7.5"/><circle cx="103.09" cy="285.001" r="7.5"/><circle cx="163.09" cy="309.001" r="7.5"/><circle cx="104.09" cy="249.001" r="7.5"/><circle cx="194.09" cy="219.001" r="7.5"/><circle cx="224.09" cy="289.001" r="7.5"/><circle cx="254.09" cy="239.001" r="7.5"/><circle cx="324.09" cy="299.001" r="7.5"/></symbol><symbol id="bookmark" viewBox="0 0 345.567 345.567"><title>bookmark</title><path d="M263.342,9.6c-5.98-5.995-14.092-9.375-22.56-9.4h-136V0c-8.481,0.015-16.61,3.396-22.6,9.4 c-5.995,5.98-9.375,14.093-9.4,22.56v285.76c-0.128,7,2.145,13.832,6.44,19.36c6.028,7.745,16.469,10.539,25.56,6.84 c7.998-3.506,14.628-9.532,18.88-17.16l49.12-78.32l49.12,78.32c4.252,7.628,10.882,13.654,18.88,17.16 c9.125,3.746,19.628,0.949,25.68-6.84c4.252-5.544,6.482-12.375,6.32-19.36V31.96C272.694,23.556,269.303,15.525,263.342,9.6z M253.582,326.92c-0.788,1.037-1.878,1.806-3.12,2.2c-1.339,0.293-2.735,0.167-4-0.36c-4.67-2.242-8.518-5.893-11-10.44l-56-89.2 c-0.676-1.126-1.618-2.069-2.744-2.744c-3.789-2.273-8.703-1.045-10.976,2.744l-56,89.08c-2.428,4.609-6.25,8.332-10.92,10.64 c-1.264,0.53-2.661,0.656-4,0.36c-1.242-0.394-2.332-1.163-3.12-2.2c-1.917-2.688-2.875-5.942-2.72-9.24V32 c0.108-8.681,7.119-15.692,15.8-15.8h68h68c8.601,0.152,15.5,7.158,15.52,15.76v285.72 C256.457,320.978,255.499,324.232,253.582,326.92z"/></symbol><symbol id="product" viewBox="0 0 512 512"><title>product</title><path style="fill:#FEDA44;" d="M358.4,364.723c-42.001,0-84.001-15.987-115.976-47.963c-23.726-23.726-55.27-36.792-88.824-36.792 s-65.098,13.066-88.823,36.792L32,349.539V60.063l5.624-5.624c63.949-63.95,168.004-63.95,231.953,0 c23.726,23.726,55.27,36.792,88.824,36.792s65.097-13.066,88.824-36.792L480,21.661v289.476l-5.624,5.624 C442.401,348.736,400.401,364.723,358.4,364.723z"/><path style="fill:#FECE00;" d="M447.224,54.438c-23.727,23.726-55.27,36.792-88.824,36.792s-65.097-13.066-88.824-36.792 c-4.347-4.347-8.884-8.388-13.576-12.143v286.609c29.824,23.873,66.108,35.82,102.4,35.82c42.001,0,84.001-15.987,115.976-47.963 l5.624-5.624V21.661L447.224,54.438z"/><g> <rect x="32" style="fill:#FE0B37;" width="38.4" height="512"/> <path style="fill:#FE0B37;" d="M198.596,89.6v108.756h-29.87v-42.583h-36.457v42.583H102.4V89.6h29.87v40.133h36.457V89.6H198.596z "/> <path style="fill:#FE0B37;" d="M263.391,244.732c-7.762,0-14.834-1.582-21.215-4.749c-6.383-3.164-11.848-7.327-16.39-12.484 c-4.545-5.155-8.069-11.053-10.569-17.692c-2.504-6.637-3.753-13.48-3.753-20.526c0-7.146,1.302-14.039,3.907-20.678 c2.604-6.637,6.254-12.484,10.952-17.54c4.696-5.055,10.237-9.088,16.62-12.101c6.381-3.012,13.403-4.518,21.062-4.518 c7.761,0,14.833,1.585,21.216,4.749c6.381,3.167,11.845,7.352,16.39,12.561c4.543,5.208,8.042,11.132,10.492,17.769 c2.451,6.639,3.677,13.43,3.677,20.374c0,7.149-1.303,14.016-3.907,20.603c-2.605,6.587-6.204,12.407-10.799,17.463 c-4.595,5.055-10.109,9.114-16.543,12.178C278.095,243.2,271.049,244.732,263.391,244.732z M241.792,189.587 c0,3.676,0.433,7.226,1.302,10.646c0.867,3.423,2.221,6.46,4.059,9.115c1.838,2.656,4.136,4.801,6.893,6.433 c2.757,1.635,5.974,2.451,9.65,2.451c3.777,0,7.046-0.842,9.804-2.528c2.757-1.684,5.002-3.88,6.74-6.587 c1.734-2.705,3.036-5.795,3.905-9.267c0.867-3.47,1.303-6.993,1.303-10.569c0-3.676-0.46-7.223-1.379-10.646 c-0.919-3.42-2.273-6.433-4.059-9.038c-1.788-2.605-4.059-4.696-6.816-6.281c-2.757-1.582-5.974-2.374-9.65-2.374 c-3.78,0-7.022,0.819-9.727,2.451c-2.707,1.635-4.955,3.805-6.74,6.51c-1.787,2.707-3.117,5.77-3.982,9.19 C242.226,182.516,241.792,186.013,241.792,189.587z"/> </g><g> <path style="fill:#C60024;" d="M425.32,211.684h-31.249V294.4h-29.87v-82.716H332.8v-26.04h92.52V211.684z"/> <rect x="51.2" style="fill:#C60024;" width="19.2" height="512"/> <path style="fill:#C60024;" d="M312.101,169.521c-2.451-6.637-5.949-12.561-10.492-17.769c-4.545-5.208-10.01-9.394-16.39-12.561 c-6.383-3.164-13.455-4.748-21.216-4.748c-0.109,0-0.215,0.008-0.323,0.008v26.495c3.619,0.019,6.792,0.809,9.514,2.371 c2.757,1.585,5.028,3.676,6.816,6.281c1.786,2.604,3.14,5.618,4.059,9.038c0.919,3.423,1.379,6.97,1.379,10.646 c0,3.576-0.435,7.099-1.302,10.569c-0.869,3.473-2.171,6.564-3.905,9.267c-1.738,2.707-3.983,4.902-6.741,6.587 c-2.757,1.684-6.026,2.528-9.803,2.528c-0.005,0-0.012,0-0.017,0v26.493c7.546-0.038,14.497-1.563,20.85-4.589 c6.433-3.063,11.948-7.123,16.543-12.178c4.595-5.055,8.195-10.876,10.799-17.463c2.604-6.587,3.907-13.454,3.907-20.603 C315.779,182.95,314.552,176.16,312.101,169.521z"/> </g></symbol></svg>